<svg xmlns="http://www.w3.org/2000/svg" width="147.301" height="147.301" viewBox="0 0 147.301 147.301">
  <g id="그룹_1" data-name="그룹 1" transform="translate(-141.699 -199.699)">
    <g id="패스_5" data-name="패스 5" transform="translate(141.699 199.699)" fill="none">
      <path d="M73.651,0A73.651,73.651,0,1,1,0,73.651,73.651,73.651,0,0,1,73.651,0Z" stroke="none"/>
      <path d="M 73.65065002441406 6 C 36.34795379638672 6 6 36.34795379638672 6 73.65065002441406 C 6 110.9533538818359 36.34795379638672 141.3013000488281 73.65065002441406 141.3013000488281 C 110.9533538818359 141.3013000488281 141.3013000488281 110.9533538818359 141.3013000488281 73.65065002441406 C 141.3013000488281 36.34795379638672 110.9533538818359 6 73.65065002441406 6 M 73.65065002441406 0 C 114.326774597168 0 147.3013000488281 32.97452545166016 147.3013000488281 73.65065002441406 C 147.3013000488281 114.326774597168 114.326774597168 147.3013000488281 73.65065002441406 147.3013000488281 C 32.97452545166016 147.3013000488281 0 114.326774597168 0 73.65065002441406 C 0 32.97452545166016 32.97452545166016 0 73.65065002441406 0 Z" stroke="none" fill="#30bdd9"/>
    </g>
    <path id="패스_7" data-name="패스 7" d="M32.878,34.834a22.358,22.358,0,0,1-11.748,2.979q-9.188,0-14.831-5.979T.656,16.331Q.656,5.716,6.74-.724t16.237-6.44a22.6,22.6,0,0,1,9.986,2.1V1.982A17.5,17.5,0,0,0,22.725-1.374a13.834,13.834,0,0,0-10.8,4.72Q7.7,8.066,7.7,15.744q0,7.552,3.965,11.915a13.666,13.666,0,0,0,10.636,4.363,17.245,17.245,0,0,0,10.573-3.734Z" transform="translate(169.62 261.094)" fill="#30bdd9"/>
    <path id="패스_2" data-name="패스 2" d="M218.759,350.244" transform="translate(38.076 -69.261)" fill="none" stroke="#707070" stroke-width="1"/>
    <g id="패스_6" data-name="패스 6" transform="translate(221.487 261.074)" fill="none">
      <path d="M18.413,0A18.413,18.413,0,1,1,0,18.413,18.413,18.413,0,0,1,18.413,0Z" stroke="none"/>
      <path d="M 18.41266250610352 5.999996185302734 C 11.56829643249512 5.999996185302734 5.999996185302734 11.56829643249512 5.999996185302734 18.41266250610352 C 5.999996185302734 25.25703048706055 11.56829643249512 30.8253288269043 18.41266250610352 30.8253288269043 C 25.25703048706055 30.8253288269043 30.8253288269043 25.25703048706055 30.8253288269043 18.41266250610352 C 30.8253288269043 11.56829643249512 25.25703048706055 5.999996185302734 18.41266250610352 5.999996185302734 M 18.41266250610352 -3.814697265625e-06 C 28.58169555664063 -3.814697265625e-06 36.8253288269043 8.243629455566406 36.8253288269043 18.41266250610352 C 36.8253288269043 28.58169555664063 28.58169555664063 36.8253288269043 18.41266250610352 36.8253288269043 C 8.243629455566406 36.8253288269043 -3.814697265625e-06 28.58169555664063 -3.814697265625e-06 18.41266250610352 C -3.814697265625e-06 8.243629455566406 8.243629455566406 -3.814697265625e-06 18.41266250610352 -3.814697265625e-06 Z" stroke="none" fill="#30bdd9"/>
    </g>
    <path id="패스_3" data-name="패스 3" d="M218.622,348.772c2.917,20.661,5.044,20.772,5.044,20.772" transform="translate(37.235 -72.354)" fill="none" stroke="#30bdd9" stroke-linecap="round" stroke-width="6"/>
    <path id="패스_4" data-name="패스 4" d="M209.058,352.664s19.47-25.144,42.607,10" transform="translate(-11.766 -101.588)" fill="none" stroke="#30bdd9" stroke-linecap="round" stroke-width="6"/>
  </g>
</svg>
